<?xml version="1.0" standalone="no"?>
<!DOCTYPE svg PUBLIC "-//W3C//DTD SVG 20010904//EN"
 "http://www.w3.org/TR/2001/REC-SVG-20010904/DTD/svg10.dtd">
<svg version="1.0" xmlns="http://www.w3.org/2000/svg"
 width="225.000000pt" height="225.000000pt" viewBox="0 0 225.000000 225.000000"
 preserveAspectRatio="xMidYMid meet">
<metadata>
Created by potrace 1.11, written by Peter Selinger 2001-2013
</metadata>
<g transform="translate(0.000000,225.000000) scale(0.100000,-0.100000)"
fill="#000000" stroke="none">
<path d="M331 1458 l-1 -97 63 -19 c34 -10 187 -57 340 -103 l277 -84 -1 -385
0 -385 -74 369 c-41 203 -77 371 -80 374 -3 3 -36 15 -74 27 l-69 22 -5 -46
c-4 -25 -14 -181 -23 -345 -10 -165 -20 -294 -22 -287 -2 7 -27 173 -56 369
l-51 356 -72 22 c-48 14 -73 18 -73 10 0 -6 36 -207 82 -448 l82 -436 86 -26
c48 -14 91 -26 97 -26 6 0 18 73 27 168 20 195 28 254 32 250 1 -2 21 -106 44
-233 23 -126 42 -231 43 -231 1 -1 45 -15 98 -31 l96 -30 93 28 c51 15 96 32
99 38 3 5 24 109 46 231 27 152 41 215 46 199 4 -13 15 -103 24 -199 9 -96 18
-180 20 -187 3 -8 32 -2 96 18 51 16 94 30 96 32 4 5 173 891 169 894 -2 2
-139 -38 -145 -43 -2 -2 -28 -163 -56 -356 -37 -251 -54 -343 -58 -318 -4 19
-14 163 -22 320 -9 157 -18 290 -20 297 -3 8 -25 4 -77 -12 l-73 -23 -77 -373
-76 -374 1 385 2 384 335 102 335 102 3 96 c1 53 0 96 -3 96 -23 0 -44 -23
-43 -49 1 -36 -8 -50 -39 -62 -29 -11 -73 11 -73 36 0 32 -102 8 -133 -31 -10
-13 -26 -25 -36 -29 -10 -3 -21 -14 -24 -25 -3 -11 -17 -25 -31 -31 -23 -11
-31 -9 -57 10 -16 12 -43 23 -58 23 -38 1 -191 -51 -217 -74 -25 -22 -57 -23
-74 -3 -7 8 -62 30 -124 49 -191 59 -183 58 -211 30 -44 -44 -101 -25 -114 36
-6 33 -11 36 -81 57 -69 22 -77 22 -107 8 -41 -18 -78 -5 -92 34 -7 20 -10 3
-10 -71z"/>
</g>
</svg>
